# Blender v2.75 (sub 0) OBJ File: 'buildingLP1.blend'
# www.blender.org
mtllib buildingLP1.mtl
o Cube.001_Cube
v -5.588823 -0.007027 5.588823
v -5.588823 12.881824 5.588823
v -5.588823 -0.007027 -5.588823
v -5.588823 12.881824 -5.588823
v 5.588823 -0.007027 5.588823
v 5.588823 12.881824 5.588823
v 5.588823 -0.007027 -5.588823
v 5.588823 12.881824 -5.588823
vt 0.000000 0.500000
vt 0.333333 0.500000
vt 0.333333 1.000000
vt 0.000000 1.000000
vt 0.000000 0.000000
vt 0.333333 0.000000
vt 0.666667 0.000000
vt 0.666667 0.500000
vt 0.666667 1.000000
vt 1.000000 0.433617
vt 1.000000 0.867233
vt 0.666667 0.867233
vt 0.666667 0.433617
vt 1.000000 0.000000
vn -1.000000 0.000000 0.000000
vn 0.000000 0.000000 -1.000000
vn 1.000000 0.000000 0.000000
vn 0.000000 0.000000 1.000000
vn 0.000000 -1.000000 0.000000
vn 0.000000 1.000000 0.000000
usemtl Material
s off
f 2/1/1 4/2/1 3/3/1 1/4/1
f 4/5/2 8/6/2 7/2/2 3/1/2
f 8/6/3 6/7/3 5/8/3 7/2/3
f 6/2/4 2/8/4 1/9/4 5/3/4
f 1/10/5 3/11/5 7/12/5 5/13/5
f 6/7/6 8/14/6 4/10/6 2/13/6
