# Blender v2.75 (sub 0) OBJ File: 'buildingLP4.blend'
# www.blender.org
mtllib buildingLP4.mtl
o Cube.001
v -4.624171 0.025300 4.624171
v -4.624171 9.749086 4.624171
v -4.624171 0.025300 -4.624171
v -4.624171 9.749086 -4.624171
v 4.624171 0.025300 4.624171
v 4.624171 9.749086 4.624171
v 4.624171 0.025300 -4.624171
v 4.624171 9.749086 -4.624171
v -4.624171 13.933007 0.000000
v -4.624171 0.025300 0.000000
v 4.624171 13.933007 0.000000
v 4.624171 0.025300 0.000000
vt 0.500000 0.000000
vt 0.666667 0.150417
vt 0.666667 0.500000
vt 0.500000 0.500000
vt 0.333333 0.849583
vt 0.000000 0.849583
vt 0.000000 0.500000
vt 0.333333 0.500000
vt 0.166667 0.000000
vt 0.333333 0.150417
vt 0.166667 0.500000
vt 1.000000 0.150417
vt 1.000000 0.500000
vt 0.500000 0.832490
vt 0.333333 0.832490
vt 0.000000 1.000000
vt 0.333333 1.000000
vt 0.666667 0.000000
vt 1.000000 0.000000
vt 0.666667 0.832490
vt 0.000000 0.150417
vn -1.000000 0.000000 0.000000
vn 0.000000 0.000000 -1.000000
vn 1.000000 0.000000 0.000000
vn 0.000000 0.000000 1.000000
vn 0.000000 -1.000000 0.000000
vn 0.000000 0.741500 -0.670900
vn 0.000000 0.741500 0.670900
usemtl Material
s off
f 9/1/1 4/2/1 3/3/1 10/4/1
f 4/5/2 8/6/2 7/7/2 3/8/2
f 11/9/3 6/10/3 5/8/3 12/11/3
f 6/2/4 2/12/4 1/13/4 5/3/4
f 10/14/5 3/15/5 7/8/5 12/4/5
f 11/16/6 8/6/6 4/5/6 9/17/6
f 6/2/7 11/18/7 9/19/7 2/12/7
f 1/20/5 10/14/5 12/4/5 5/3/5
f 8/21/3 11/9/3 12/11/3 7/7/3
f 2/10/1 9/1/1 10/4/1 1/8/1
