# Blender v2.75 (sub 0) OBJ File: 'buildingLP6.blend'
# www.blender.org
mtllib buildingLP6.mtl
o Cube.001
v -4.690378 10.827694 -4.690377
v 4.690378 10.827694 -4.690378
v 0.000000 13.814390 -0.000000
v 4.690378 10.827694 4.690378
v -4.690377 10.827694 4.690378
v -4.259013 -0.046053 4.259013
v -4.259013 10.952038 4.259013
v -4.259013 -0.046053 -4.259013
v -4.259013 10.952038 -4.259013
v 4.259013 -0.046053 4.259013
v 4.259013 10.952038 4.259013
v 4.259013 -0.046053 -4.259013
v 4.259013 10.952038 -4.259013
vt 0.735550 0.926472
vt 0.486621 0.713236
vt 0.735550 0.500000
vt 0.896352 0.426472
vt 0.762648 0.213236
vt 0.896352 0.000000
vt 0.381324 0.500000
vt 0.381324 0.926472
vt 0.000000 0.000000
vt 0.381324 0.000000
vt 0.000000 0.500000
vt 0.762648 0.500000
vt 0.762648 0.000000
vt 0.381324 1.000000
vt 0.000000 1.000000
vt 1.000000 0.500000
vt 1.000000 0.887250
vt 0.735550 0.887250
vn 0.000000 0.843500 0.537100
vn -0.000000 0.843500 -0.537100
vn -0.537100 0.843500 0.000000
vn 0.537100 0.843500 0.000000
vn -1.000000 0.000000 0.000000
vn 0.000000 0.000000 -1.000000
vn 1.000000 0.000000 0.000000
vn 0.000000 0.000000 1.000000
usemtl Material
s off
f 4/1/1 3/2/1 5/3/1
f 1/4/2 3/5/2 2/6/2
f 5/3/3 3/2/3 1/7/3
f 2/8/4 3/2/4 4/1/4
f 7/9/5 9/10/5 8/7/5 6/11/5
f 9/12/6 13/7/6 12/10/6 8/13/6
f 13/14/7 11/15/7 10/11/7 12/7/7
f 11/16/8 7/17/8 6/18/8 10/3/8
