# Blender v2.75 (sub 0) OBJ File: 'buildingLP7.blend'
# www.blender.org
mtllib buildingLP7.mtl
o Cube.001
v -4.244488 -0.044033 4.244488
v -4.244488 11.636108 4.244488
v -4.244488 -0.044033 -4.244488
v -4.244488 11.636108 -4.244488
v 4.244488 -0.044033 4.244488
v 4.244488 11.636108 4.244488
v 4.244488 -0.044033 -4.244488
v 4.244488 11.636108 -4.244488
v -4.074333 11.636108 4.074333
v -4.074333 11.636108 -4.074333
v 4.074333 11.636108 -4.074333
v 4.074333 11.636108 4.074333
v -4.074333 11.300137 4.074333
v -4.074333 11.300137 -4.074333
v 4.074333 11.300137 -4.074333
v 4.074333 11.300137 4.074333
vt 0.333333 0.000000
vt 0.666667 0.000000
vt 0.666667 0.471234
vt 0.333333 0.471234
vt 0.333333 0.942467
vt 0.000000 0.942467
vt 0.000000 0.471234
vt 0.000000 0.000000
vt 0.666667 0.942467
vt 1.000000 0.000000
vt 1.000000 0.342486
vt 0.993319 0.335622
vt 0.993319 0.006865
vt 0.679859 1.000000
vt 0.679859 0.671243
vt 0.693052 0.671243
vt 0.693052 1.000000
vt 0.673348 0.006865
vt 0.666667 0.342487
vt 0.673348 0.335622
vt 0.986637 0.342487
vt 0.986637 0.671243
vt 0.666667 0.671243
vt 0.666667 1.000000
vt 0.706244 1.000000
vt 0.706244 0.671243
vt 0.719437 0.671243
vt 0.719437 1.000000
vn -1.000000 0.000000 0.000000
vn 0.000000 0.000000 -1.000000
vn 1.000000 0.000000 0.000000
vn 0.000000 0.000000 1.000000
vn 0.000000 1.000000 -0.000000
usemtl Material
s off
f 2/1/1 4/2/1 3/3/1 1/4/1
f 4/5/2 8/6/2 7/7/2 3/4/2
f 8/8/3 6/1/3 5/4/3 7/7/3
f 6/4/4 2/3/4 1/9/4 5/5/4
f 8/10/5 4/11/5 10/12/5 11/13/5
f 9/14/2 12/15/2 16/16/2 13/17/2
f 6/2/5 8/10/5 11/13/5 12/18/5
f 4/11/5 2/19/5 9/20/5 10/12/5
f 2/19/5 6/2/5 12/18/5 9/20/5
f 16/19/5 15/21/5 14/22/5 13/23/5
f 11/15/4 10/14/4 14/24/4 15/23/4
f 12/25/1 11/26/1 15/27/1 16/28/1
f 10/17/3 9/16/3 13/26/3 14/25/3
