# Blender v2.75 (sub 0) OBJ File: 'car1.blend'
# www.blender.org
mtllib wheel.mtl
o pneu_Cylinder
v 0.092015 0.000000 -0.444872
v -0.092015 -0.000000 -0.444872
v 0.092015 -0.086790 -0.436324
v -0.092015 -0.086790 -0.436324
v 0.092015 -0.170245 -0.411008
v -0.092015 -0.170245 -0.411008
v 0.092015 -0.247158 -0.369898
v -0.092015 -0.247158 -0.369898
v 0.092015 -0.314572 -0.314572
v -0.092015 -0.314572 -0.314572
v 0.092015 -0.369898 -0.247158
v -0.092014 -0.369898 -0.247158
v 0.092015 -0.411008 -0.170245
v -0.092014 -0.411008 -0.170245
v 0.092015 -0.436324 -0.086790
v -0.092014 -0.436324 -0.086790
v 0.092015 -0.444872 -0.000000
v -0.092014 -0.444872 -0.000000
v 0.092015 -0.436324 0.086790
v -0.092014 -0.436324 0.086790
v 0.092015 -0.411008 0.170245
v -0.092014 -0.411008 0.170245
v 0.092015 -0.369898 0.247158
v -0.092014 -0.369898 0.247158
v 0.092015 -0.314572 0.314572
v -0.092015 -0.314572 0.314572
v 0.092015 -0.247158 0.369898
v -0.092015 -0.247158 0.369898
v 0.092015 -0.170245 0.411008
v -0.092015 -0.170245 0.411008
v 0.092015 -0.086790 0.436324
v -0.092015 -0.086790 0.436324
v 0.092015 0.000000 0.444872
v -0.092015 0.000000 0.444872
v 0.092015 0.086790 0.436324
v -0.092015 0.086790 0.436324
v 0.092015 0.170245 0.411008
v -0.092015 0.170245 0.411008
v 0.092015 0.247158 0.369898
v -0.092015 0.247158 0.369898
v 0.092015 0.314572 0.314572
v -0.092015 0.314572 0.314572
v 0.092014 0.369898 0.247158
v -0.092015 0.369898 0.247158
v 0.092014 0.411009 0.170245
v -0.092015 0.411009 0.170245
v 0.092014 0.436324 0.086790
v -0.092015 0.436324 0.086790
v 0.092014 0.444872 -0.000000
v -0.092015 0.444872 -0.000000
v 0.092014 0.436324 -0.086791
v -0.092015 0.436324 -0.086791
v 0.092014 0.411008 -0.170246
v -0.092015 0.411008 -0.170246
v 0.092014 0.369897 -0.247158
v -0.092015 0.369897 -0.247158
v 0.092015 0.314572 -0.314573
v -0.092015 0.314572 -0.314573
v 0.092015 0.247157 -0.369898
v -0.092015 0.247157 -0.369898
v 0.092015 0.170245 -0.411009
v -0.092015 0.170245 -0.411009
v 0.092015 0.086790 -0.436324
v -0.092015 0.086790 -0.436324
v 0.092015 -0.000000 -0.259297
v 0.092015 -0.050586 -0.254314
v 0.092015 -0.099228 -0.239559
v 0.092015 -0.144057 -0.215597
v 0.092015 -0.183350 -0.183350
v 0.092015 -0.215597 -0.144057
v 0.092015 -0.239559 -0.099229
v 0.092015 -0.254314 -0.050586
v 0.092015 -0.259297 -0.000000
v 0.092015 -0.254314 0.050586
v 0.092015 -0.239559 0.099228
v 0.092015 -0.215597 0.144057
v 0.092015 -0.183350 0.183350
v 0.092015 -0.144057 0.215597
v 0.092015 -0.099228 0.239559
v 0.092015 -0.050586 0.254314
v 0.092015 0.000000 0.259296
v 0.092015 0.050586 0.254314
v 0.092015 0.099229 0.239559
v 0.092015 0.144058 0.215597
v 0.092015 0.183350 0.183350
v 0.092015 0.215597 0.144057
v 0.092015 0.239559 0.099228
v 0.092015 0.254314 0.050586
v 0.092015 0.259296 -0.000000
v 0.092015 0.254314 -0.050587
v 0.092015 0.239559 -0.099229
v 0.092015 0.215597 -0.144058
v 0.092015 0.183350 -0.183351
v 0.092015 0.144057 -0.215597
v 0.092015 0.099228 -0.239559
v 0.092015 0.050586 -0.254314
v -0.030579 -0.000000 -0.259297
v -0.030579 -0.050586 -0.254314
v -0.030579 -0.099228 -0.239559
v -0.030579 -0.144057 -0.215597
v -0.030579 -0.183350 -0.183350
v -0.030579 -0.215597 -0.144057
v -0.030579 -0.239559 -0.099229
v -0.030579 -0.254314 -0.050586
v -0.030579 -0.259297 -0.000000
v -0.030579 -0.254314 0.050586
v -0.030579 -0.239559 0.099228
v -0.030579 -0.215597 0.144057
v -0.030579 -0.183350 0.183350
v -0.030579 -0.144057 0.215597
v -0.030579 -0.099228 0.239559
v -0.030579 -0.050586 0.254314
v -0.030579 0.000000 0.259296
v -0.030579 0.050586 0.254314
v -0.030579 0.099229 0.239559
v -0.030579 0.144058 0.215597
v -0.030579 0.183350 0.183350
v -0.030579 0.215597 0.144057
v -0.030579 0.239559 0.099228
v -0.030579 0.254314 0.050586
v -0.030579 0.259296 -0.000000
v -0.030579 0.254314 -0.050587
v -0.030579 0.239559 -0.099229
v -0.030579 0.215597 -0.144058
v -0.030579 0.183350 -0.183351
v -0.030579 0.144057 -0.215597
v -0.030579 0.099228 -0.239559
v -0.030579 0.050586 -0.254314
v -0.030579 -0.000000 -0.196062
v -0.030579 -0.038250 -0.192295
v -0.030579 -0.075030 -0.181137
v -0.030579 -0.108926 -0.163019
v -0.030579 -0.138637 -0.138637
v -0.030579 -0.163019 -0.108926
v -0.030579 -0.181137 -0.075030
v -0.030579 -0.192294 -0.038250
v -0.030579 -0.196062 -0.000000
v -0.030579 -0.192294 0.038250
v -0.030579 -0.181137 0.075029
v -0.030579 -0.163019 0.108926
v -0.030579 -0.138637 0.138636
v -0.030579 -0.108926 0.163019
v -0.030579 -0.075030 0.181137
v -0.030579 -0.038250 0.192294
v -0.030579 0.000000 0.196062
v -0.030579 0.038250 0.192294
v -0.030579 0.075030 0.181137
v -0.030579 0.108926 0.163019
v -0.030579 0.138637 0.138636
v -0.030579 0.163019 0.108926
v -0.030579 0.181137 0.075029
v -0.030579 0.192294 0.038249
v -0.030579 0.196062 -0.000000
v -0.030579 0.192294 -0.038250
v -0.030579 0.181137 -0.075030
v -0.030579 0.163019 -0.108926
v -0.030579 0.138636 -0.138637
v -0.030579 0.108926 -0.163020
v -0.030579 0.075029 -0.181138
v -0.030579 0.038249 -0.192295
v -0.092015 -0.000000 -0.199683
v -0.092015 -0.038956 -0.195846
v -0.092015 -0.076416 -0.184483
v -0.092015 -0.110938 -0.166031
v -0.092015 -0.141197 -0.141197
v -0.092015 -0.166031 -0.110938
v -0.092015 -0.184483 -0.076416
v -0.092015 -0.195846 -0.038956
v -0.092015 -0.199683 -0.000000
v -0.092015 -0.195846 0.038956
v -0.092015 -0.184483 0.076415
v -0.092015 -0.166031 0.110938
v -0.092015 -0.141197 0.141197
v -0.092015 -0.110938 0.166030
v -0.092015 -0.076415 0.184483
v -0.092015 -0.038956 0.195846
v -0.092015 0.000000 0.199683
v -0.092015 0.038956 0.195846
v -0.092015 0.076416 0.184483
v -0.092015 0.110938 0.166030
v -0.092015 0.141197 0.141197
v -0.092015 0.166031 0.110938
v -0.092015 0.184483 0.076415
v -0.092015 0.195846 0.038956
v -0.092015 0.199683 -0.000000
v -0.092015 0.195846 -0.038957
v -0.092015 0.184483 -0.076416
v -0.092015 0.166030 -0.110938
v -0.092015 0.141197 -0.141198
v -0.092015 0.110938 -0.166031
v -0.092015 0.076415 -0.184483
v -0.092015 0.038956 -0.195847
vn -0.000000 -0.098000 -0.995200
vn 0.000000 -0.290300 -0.956900
vn 0.000000 -0.471400 -0.881900
vn 0.000000 -0.634400 -0.773000
vn 0.000000 -0.773000 -0.634400
vn 0.000000 -0.881900 -0.471400
vn 0.000000 -0.956900 -0.290300
vn 0.000000 -0.995200 -0.098000
vn 0.000000 -0.995200 0.098000
vn 0.000000 -0.956900 0.290300
vn 0.000000 -0.881900 0.471400
vn 0.000000 -0.773000 0.634400
vn 0.000000 -0.634400 0.773000
vn 0.000000 -0.471400 0.881900
vn 0.000000 -0.290300 0.956900
vn 0.000000 -0.098000 0.995200
vn 0.000000 0.098000 0.995200
vn 0.000000 0.290300 0.956900
vn 0.000000 0.471400 0.881900
vn 0.000000 0.634400 0.773000
vn 0.000000 0.773000 0.634400
vn 0.000000 0.881900 0.471400
vn 0.000000 0.956900 0.290300
vn 0.000000 0.995200 0.098000
vn 0.000000 0.995200 -0.098000
vn 0.000000 0.956900 -0.290300
vn 0.000000 0.881900 -0.471400
vn 0.000000 0.773000 -0.634400
vn 0.000000 0.634400 -0.773000
vn 0.000000 0.471400 -0.881900
vn 1.000000 0.000000 -0.000000
vn 0.000000 0.098000 -0.995200
vn 0.000000 0.290300 -0.956900
vn -1.000000 0.000000 0.000000
g pneu_Cylinder_Black
usemtl Black
s off
f 3//1 4//1 2//1
f 5//2 6//2 4//2
f 7//3 8//3 6//3
f 9//4 10//4 8//4
f 11//5 12//5 10//5
f 13//6 14//6 12//6
f 15//7 16//7 14//7
f 15//8 17//8 18//8
f 19//9 20//9 18//9
f 21//10 22//10 20//10
f 23//11 24//11 22//11
f 25//12 26//12 24//12
f 27//13 28//13 26//13
f 29//14 30//14 28//14
f 31//15 32//15 30//15
f 33//16 34//16 32//16
f 35//17 36//17 34//17
f 35//18 37//18 38//18
f 39//19 40//19 38//19
f 41//20 42//20 40//20
f 43//21 44//21 42//21
f 45//22 46//22 44//22
f 47//23 48//23 46//23
f 49//24 50//24 48//24
f 49//25 51//25 52//25
f 53//26 54//26 52//26
f 55//27 56//27 54//27
f 55//28 57//28 58//28
f 59//29 60//29 58//29
f 61//30 62//30 60//30
f 27//31 78//31 79//31
f 1//32 2//32 64//32
f 63//33 64//33 62//33
f 69//31 70//31 11//31
f 87//31 88//31 47//31
f 65//31 66//31 3//31
f 96//31 65//31 1//31
f 74//31 75//31 21//31
f 83//31 84//31 39//31
f 92//31 93//31 57//31
f 70//31 71//31 13//31
f 79//31 80//31 31//31
f 88//31 89//31 49//31
f 66//31 67//31 5//31
f 21//31 75//31 76//31
f 84//31 85//31 41//31
f 93//31 94//31 59//31
f 13//31 71//31 72//31
f 31//31 80//31 81//31
f 89//31 90//31 51//31
f 67//31 68//31 7//31
f 23//31 76//31 77//31
f 85//31 86//31 43//31
f 94//31 95//31 61//31
f 72//31 73//31 17//31
f 81//31 82//31 35//31
f 90//31 91//31 53//31
f 7//31 68//31 69//31
f 25//31 77//31 78//31
f 86//31 87//31 45//31
f 95//31 96//31 63//31
f 17//31 73//31 74//31
f 82//31 83//31 37//31
f 91//31 92//31 55//31
f 121//9 122//9 90//9
f 108//28 109//28 77//28
f 122//10 123//10 91//10
f 109//29 110//29 78//29
f 91//11 123//11 124//11
f 110//30 111//30 79//30
f 97//17 98//17 66//17
f 92//12 124//12 125//12
f 111//33 112//33 80//33
f 98//18 99//18 67//18
f 93//13 125//13 126//13
f 112//32 113//32 81//32
f 99//19 100//19 68//19
f 94//14 126//14 127//14
f 113//1 114//1 82//1
f 100//20 101//20 69//20
f 127//15 128//15 96//15
f 114//2 115//2 83//2
f 69//21 101//21 102//21
f 96//16 128//16 97//16
f 115//3 116//3 84//3
f 102//22 103//22 71//22
f 116//4 117//4 85//4
f 103//23 104//23 72//23
f 117//5 118//5 86//5
f 104//24 105//24 73//24
f 118//6 119//6 87//6
f 105//25 106//25 74//25
f 119//7 120//7 88//7
f 106//26 107//26 75//26
f 120//8 121//8 89//8
f 107//27 108//27 76//27
f 156//31 157//31 125//31
f 143//31 144//31 112//31
f 98//31 130//31 131//31
f 157//31 158//31 126//31
f 144//31 145//31 113//31
f 131//31 132//31 100//31
f 158//31 159//31 127//31
f 145//31 146//31 114//31
f 100//31 132//31 133//31
f 159//31 160//31 128//31
f 114//31 146//31 147//31
f 101//31 133//31 134//31
f 128//31 160//31 129//31
f 147//31 148//31 116//31
f 102//31 134//31 135//31
f 116//31 148//31 149//31
f 103//31 135//31 136//31
f 149//31 150//31 118//31
f 104//31 136//31 137//31
f 150//31 151//31 119//31
f 105//31 137//31 138//31
f 151//31 152//31 120//31
f 106//31 138//31 139//31
f 152//31 153//31 121//31
f 139//31 140//31 108//31
f 121//31 153//31 154//31
f 140//31 141//31 109//31
f 154//31 155//31 123//31
f 109//31 141//31 142//31
f 155//31 156//31 124//31
f 110//31 142//31 143//31
f 129//31 130//31 98//31
f 179//34 178//34 36//34
f 56//34 188//34 187//34
f 166//34 165//34 10//34
f 175//34 174//34 28//34
f 184//34 183//34 46//34
f 4//34 162//34 161//34
f 2//34 161//34 192//34
f 171//34 170//34 20//34
f 180//34 179//34 38//34
f 58//34 189//34 188//34
f 167//34 166//34 12//34
f 176//34 175//34 30//34
f 50//34 185//34 184//34
f 163//34 162//34 4//34
f 172//34 171//34 22//34
f 181//34 180//34 40//34
f 60//34 190//34 189//34
f 16//34 168//34 167//34
f 177//34 176//34 32//34
f 52//34 186//34 185//34
f 164//34 163//34 6//34
f 26//34 173//34 172//34
f 44//34 182//34 181//34
f 191//34 190//34 60//34
f 169//34 168//34 16//34
f 178//34 177//34 34//34
f 54//34 187//34 186//34
f 165//34 164//34 8//34
f 174//34 173//34 26//34
f 46//34 183//34 182//34
f 64//34 192//34 191//34
f 170//34 169//34 18//34
f 1//1 3//1 2//1
f 3//2 5//2 4//2
f 5//3 7//3 6//3
f 7//4 9//4 8//4
f 9//5 11//5 10//5
f 11//6 13//6 12//6
f 13//7 15//7 14//7
f 16//8 15//8 18//8
f 17//9 19//9 18//9
f 19//10 21//10 20//10
f 21//11 23//11 22//11
f 23//12 25//12 24//12
f 25//13 27//13 26//13
f 27//14 29//14 28//14
f 29//15 31//15 30//15
f 31//16 33//16 32//16
f 33//17 35//17 34//17
f 36//18 35//18 38//18
f 37//19 39//19 38//19
f 39//20 41//20 40//20
f 41//21 43//21 42//21
f 43//22 45//22 44//22
f 45//23 47//23 46//23
f 47//24 49//24 48//24
f 50//25 49//25 52//25
f 51//26 53//26 52//26
f 53//27 55//27 54//27
f 56//28 55//28 58//28
f 57//29 59//29 58//29
f 59//30 61//30 60//30
f 29//31 27//31 79//31
f 63//32 1//32 64//32
f 61//33 63//33 62//33
f 9//31 69//31 11//31
f 45//31 87//31 47//31
f 1//31 65//31 3//31
f 63//31 96//31 1//31
f 19//31 74//31 21//31
f 37//31 83//31 39//31
f 55//31 92//31 57//31
f 11//31 70//31 13//31
f 29//31 79//31 31//31
f 47//31 88//31 49//31
f 3//31 66//31 5//31
f 23//31 21//31 76//31
f 39//31 84//31 41//31
f 57//31 93//31 59//31
f 15//31 13//31 72//31
f 33//31 31//31 81//31
f 49//31 89//31 51//31
f 5//31 67//31 7//31
f 25//31 23//31 77//31
f 41//31 85//31 43//31
f 59//31 94//31 61//31
f 15//31 72//31 17//31
f 33//31 81//31 35//31
f 51//31 90//31 53//31
f 9//31 7//31 69//31
f 27//31 25//31 78//31
f 43//31 86//31 45//31
f 61//31 95//31 63//31
f 19//31 17//31 74//31
f 35//31 82//31 37//31
f 53//31 91//31 55//31
f 89//9 121//9 90//9
f 76//28 108//28 77//28
f 90//10 122//10 91//10
f 77//29 109//29 78//29
f 92//11 91//11 124//11
f 78//30 110//30 79//30
f 65//17 97//17 66//17
f 93//12 92//12 125//12
f 79//33 111//33 80//33
f 66//18 98//18 67//18
f 94//13 93//13 126//13
f 80//32 112//32 81//32
f 67//19 99//19 68//19
f 95//14 94//14 127//14
f 81//1 113//1 82//1
f 68//20 100//20 69//20
f 95//15 127//15 96//15
f 82//2 114//2 83//2
f 70//21 69//21 102//21
f 65//16 96//16 97//16
f 83//3 115//3 84//3
f 70//22 102//22 71//22
f 84//4 116//4 85//4
f 71//23 103//23 72//23
f 85//5 117//5 86//5
f 72//24 104//24 73//24
f 86//6 118//6 87//6
f 73//25 105//25 74//25
f 87//7 119//7 88//7
f 74//26 106//26 75//26
f 88//8 120//8 89//8
f 75//27 107//27 76//27
f 124//31 156//31 125//31
f 111//31 143//31 112//31
f 99//31 98//31 131//31
f 125//31 157//31 126//31
f 112//31 144//31 113//31
f 99//31 131//31 100//31
f 126//31 158//31 127//31
f 113//31 145//31 114//31
f 101//31 100//31 133//31
f 127//31 159//31 128//31
f 115//31 114//31 147//31
f 102//31 101//31 134//31
f 97//31 128//31 129//31
f 115//31 147//31 116//31
f 103//31 102//31 135//31
f 117//31 116//31 149//31
f 104//31 103//31 136//31
f 117//31 149//31 118//31
f 105//31 104//31 137//31
f 118//31 150//31 119//31
f 106//31 105//31 138//31
f 119//31 151//31 120//31
f 107//31 106//31 139//31
f 120//31 152//31 121//31
f 107//31 139//31 108//31
f 122//31 121//31 154//31
f 108//31 140//31 109//31
f 122//31 154//31 123//31
f 110//31 109//31 142//31
f 123//31 155//31 124//31
f 111//31 110//31 143//31
f 97//31 129//31 98//31
f 38//34 179//34 36//34
f 54//34 56//34 187//34
f 12//34 166//34 10//34
f 30//34 175//34 28//34
f 48//34 184//34 46//34
f 2//34 4//34 161//34
f 64//34 2//34 192//34
f 22//34 171//34 20//34
f 40//34 180//34 38//34
f 56//34 58//34 188//34
f 14//34 167//34 12//34
f 32//34 176//34 30//34
f 48//34 50//34 184//34
f 6//34 163//34 4//34
f 24//34 172//34 22//34
f 42//34 181//34 40//34
f 58//34 60//34 189//34
f 14//34 16//34 167//34
f 34//34 177//34 32//34
f 50//34 52//34 185//34
f 8//34 164//34 6//34
f 24//34 26//34 172//34
f 42//34 44//34 181//34
f 62//34 191//34 60//34
f 18//34 169//34 16//34
f 36//34 178//34 34//34
f 52//34 54//34 186//34
f 10//34 165//34 8//34
f 28//34 174//34 26//34
f 44//34 46//34 182//34
f 62//34 64//34 191//34
f 20//34 170//34 18//34
o calota_Cylinder.002
v 0.117682 0.000000 0.000000
v -0.088365 -0.000000 0.000000
v 0.010733 -0.000000 -0.169440
v -0.088365 -0.000000 -0.251646
v 0.010733 -0.033056 -0.166184
v -0.088365 -0.049094 -0.246810
v 0.010733 -0.064842 -0.156542
v -0.088365 -0.096301 -0.232490
v 0.010733 -0.094136 -0.140884
v -0.088365 -0.139807 -0.209236
v 0.010733 -0.119812 -0.119812
v -0.088365 -0.177940 -0.177940
v 0.010733 -0.140884 -0.094136
v -0.088365 -0.209236 -0.139807
v 0.010733 -0.156542 -0.064842
v -0.088365 -0.232490 -0.096301
v 0.010733 -0.166184 -0.033056
v -0.088365 -0.246810 -0.049094
v 0.010733 -0.169440 -0.000000
v -0.088365 -0.251646 -0.000000
v 0.010733 -0.166184 0.033056
v -0.088365 -0.246810 0.049094
v 0.010733 -0.156542 0.064842
v -0.088365 -0.232490 0.096301
v 0.010733 -0.140884 0.094136
v -0.088365 -0.209236 0.139807
v 0.010733 -0.119812 0.119812
v -0.088365 -0.177940 0.177940
v 0.010733 -0.094136 0.140884
v -0.088365 -0.139807 0.209236
v 0.010733 -0.064842 0.156542
v -0.088365 -0.096301 0.232490
v 0.010733 -0.033056 0.166184
v -0.088365 -0.049094 0.246810
v 0.010733 0.000000 0.169440
v -0.088365 0.000000 0.251646
v 0.010733 0.033056 0.166184
v -0.088365 0.049094 0.246810
v 0.010733 0.064842 0.156542
v -0.088365 0.096301 0.232490
v 0.010733 0.094136 0.140884
v -0.088365 0.139807 0.209236
v 0.010733 0.119812 0.119812
v -0.088365 0.177940 0.177940
v 0.010733 0.140884 0.094136
v -0.088365 0.209236 0.139807
v 0.010733 0.156542 0.064842
v -0.088365 0.232490 0.096300
v 0.010733 0.166184 0.033056
v -0.088365 0.246810 0.049093
v 0.010733 0.169440 -0.000000
v -0.088365 0.251646 -0.000000
v 0.010733 0.166184 -0.033056
v -0.088365 0.246810 -0.049094
v 0.010733 0.156542 -0.064842
v -0.088365 0.232490 -0.096301
v 0.010733 0.140884 -0.094136
v -0.088365 0.209236 -0.139807
v 0.010733 0.119812 -0.119812
v -0.088365 0.177940 -0.177941
v 0.010733 0.094136 -0.140884
v -0.088365 0.139807 -0.209236
v 0.010733 0.064842 -0.156542
v -0.088365 0.096300 -0.232490
v 0.010733 0.033056 -0.166184
v -0.088365 0.049093 -0.246810
vn 0.844500 -0.052500 -0.533000
vn -1.000000 -0.000000 0.000000
vn 0.636600 -0.075600 -0.767500
vn 0.844500 -0.155500 -0.512500
vn 0.636600 -0.223900 -0.738000
vn 0.844500 -0.252500 -0.472400
vn 0.636600 -0.363500 -0.680100
vn 0.844500 -0.339800 -0.414000
vn 0.636600 -0.489200 -0.596100
vn 0.844500 -0.414000 -0.339800
vn 0.636600 -0.596100 -0.489200
vn 0.844500 -0.472400 -0.252500
vn 0.636600 -0.680100 -0.363500
vn 0.844500 -0.512500 -0.155500
vn 0.636600 -0.738000 -0.223900
vn 0.844500 -0.533000 -0.052500
vn 0.636600 -0.767500 -0.075600
vn 0.844500 -0.533000 0.052500
vn 0.636600 -0.767500 0.075600
vn 0.844500 -0.512500 0.155500
vn 0.636600 -0.738000 0.223900
vn 0.844500 -0.472400 0.252500
vn 0.636600 -0.680100 0.363500
vn 0.844500 -0.414000 0.339800
vn 0.636600 -0.596100 0.489200
vn 0.844500 -0.339800 0.414000
vn 0.636600 -0.489200 0.596100
vn 0.844500 -0.252500 0.472400
vn 0.636600 -0.363500 0.680100
vn 0.844500 -0.155500 0.512500
vn 0.636600 -0.223900 0.738000
vn 0.844500 -0.052500 0.533000
vn 0.636600 -0.075600 0.767500
vn 0.844500 0.052500 0.533000
vn 0.636600 0.075600 0.767500
vn 0.844500 0.155500 0.512500
vn 0.636600 0.223900 0.738000
vn 0.844500 0.252500 0.472400
vn 0.636600 0.363500 0.680100
vn 0.844500 0.339800 0.414000
vn 0.636600 0.489200 0.596100
vn 0.844500 0.414000 0.339800
vn 0.636600 0.596100 0.489200
vn 0.844500 0.472400 0.252500
vn 0.636600 0.680100 0.363500
vn 0.844500 0.512500 0.155500
vn 0.636600 0.738000 0.223900
vn 0.844500 0.533000 0.052500
vn 0.636600 0.767500 0.075600
vn 0.844500 0.533000 -0.052500
vn 0.636600 0.767500 -0.075600
vn 0.844500 0.512500 -0.155500
vn 0.636600 0.738000 -0.223900
vn 0.844500 0.472400 -0.252500
vn 0.636600 0.680100 -0.363500
vn 0.844500 0.414000 -0.339800
vn 0.636600 0.596100 -0.489200
vn 0.844500 0.339800 -0.414000
vn 0.636600 0.489200 -0.596100
vn 0.844500 0.252500 -0.472400
vn 0.636600 0.363500 -0.680100
vn 0.844500 0.155500 -0.512500
vn 0.636600 0.223900 -0.738000
vn 0.844500 0.052500 -0.533000
vn 0.636600 0.075600 -0.767500
g calota_Cylinder.002_White
usemtl White
s off
f 193//35 197//35 195//35
f 194//36 196//36 198//36
f 195//37 197//37 198//37
f 193//38 199//38 197//38
f 194//36 198//36 200//36
f 199//39 200//39 198//39
f 193//40 201//40 199//40
f 194//36 200//36 202//36
f 199//41 201//41 202//41
f 193//42 203//42 201//42
f 194//36 202//36 204//36
f 201//43 203//43 204//43
f 193//44 205//44 203//44
f 194//36 204//36 206//36
f 205//45 206//45 204//45
f 193//46 207//46 205//46
f 194//36 206//36 208//36
f 205//47 207//47 208//47
f 193//48 209//48 207//48
f 194//36 208//36 210//36
f 209//49 210//49 208//49
f 193//50 211//50 209//50
f 194//36 210//36 212//36
f 211//51 212//51 210//51
f 193//52 213//52 211//52
f 194//36 212//36 214//36
f 213//53 214//53 212//53
f 193//54 215//54 213//54
f 194//36 214//36 216//36
f 215//55 216//55 214//55
f 193//56 217//56 215//56
f 194//36 216//36 218//36
f 217//57 218//57 216//57
f 193//58 219//58 217//58
f 194//36 218//36 220//36
f 219//59 220//59 218//59
f 193//60 221//60 219//60
f 194//36 220//36 222//36
f 221//61 222//61 220//61
f 193//62 223//62 221//62
f 194//36 222//36 224//36
f 223//63 224//63 222//63
f 193//64 225//64 223//64
f 194//36 224//36 226//36
f 225//65 226//65 224//65
f 193//66 227//66 225//66
f 194//36 226//36 228//36
f 227//67 228//67 226//67
f 193//68 229//68 227//68
f 194//36 228//36 230//36
f 227//69 229//69 230//69
f 193//70 231//70 229//70
f 194//36 230//36 232//36
f 231//71 232//71 230//71
f 193//72 233//72 231//72
f 194//36 232//36 234//36
f 233//73 234//73 232//73
f 193//74 235//74 233//74
f 194//36 234//36 236//36
f 235//75 236//75 234//75
f 193//76 237//76 235//76
f 194//36 236//36 238//36
f 235//77 237//77 238//77
f 193//78 239//78 237//78
f 194//36 238//36 240//36
f 237//79 239//79 240//79
f 193//80 241//80 239//80
f 194//36 240//36 242//36
f 241//81 242//81 240//81
f 193//82 243//82 241//82
f 194//36 242//36 244//36
f 241//83 243//83 244//83
f 193//84 245//84 243//84
f 194//36 244//36 246//36
f 245//85 246//85 244//85
f 193//86 247//86 245//86
f 194//36 246//36 248//36
f 245//87 247//87 248//87
f 193//88 249//88 247//88
f 194//36 248//36 250//36
f 249//89 250//89 248//89
f 193//90 251//90 249//90
f 194//36 250//36 252//36
f 251//91 252//91 250//91
f 193//92 253//92 251//92
f 194//36 252//36 254//36
f 251//93 253//93 254//93
f 193//94 255//94 253//94
f 194//36 254//36 256//36
f 253//95 255//95 256//95
f 193//96 257//96 255//96
f 194//36 256//36 258//36
f 255//97 257//97 258//97
f 193//98 195//98 257//98
f 194//36 258//36 196//36
f 195//99 196//99 258//99
f 196//37 195//37 198//37
f 197//39 199//39 198//39
f 200//41 199//41 202//41
f 202//43 201//43 204//43
f 203//45 205//45 204//45
f 206//47 205//47 208//47
f 207//49 209//49 208//49
f 209//51 211//51 210//51
f 211//53 213//53 212//53
f 213//55 215//55 214//55
f 215//57 217//57 216//57
f 217//59 219//59 218//59
f 219//61 221//61 220//61
f 221//63 223//63 222//63
f 223//65 225//65 224//65
f 225//67 227//67 226//67
f 228//69 227//69 230//69
f 229//71 231//71 230//71
f 231//73 233//73 232//73
f 233//75 235//75 234//75
f 236//77 235//77 238//77
f 238//79 237//79 240//79
f 239//81 241//81 240//81
f 242//83 241//83 244//83
f 243//85 245//85 244//85
f 246//87 245//87 248//87
f 247//89 249//89 248//89
f 249//91 251//91 250//91
f 252//93 251//93 254//93
f 254//95 253//95 256//95
f 256//97 255//97 258//97
f 257//99 195//99 258//99
