# Blender v2.75 (sub 0) OBJ File: 'plant1.blend'
# www.blender.org
mtllib plant1.mtl
o Plane.003_Plane.005
v -0.017508 0.027898 0.993921
v -0.019311 0.027898 -1.006079
v -0.017508 2.027898 0.993921
v -0.019311 2.027898 -1.006079
vt 0.000100 0.000100
vt 0.999900 0.000100
vt 0.999900 0.999900
vt 0.000100 0.999900
vn 1.000000 0.000000 -0.000900
usemtl Branch
s off
f 1/1/1 2/2/1 4/3/1 3/4/1
o Plane.002_Plane.004
v 0.994921 0.027898 0.028941
v -1.005055 0.027898 0.038745
v 0.994921 2.027898 0.028941
v -1.005055 2.027898 0.038745
vt 0.000100 0.000100
vt 0.999900 0.000100
vt 0.999900 0.999900
vt 0.000100 0.999900
vn -0.004900 0.000000 -1.000000
usemtl Branch
s off
f 5/5/2 6/6/2 8/7/2 7/8/2
o Plane.001_Plane.003
v -1.005067 0.027898 -0.042573
v 0.994933 0.027898 -0.043782
v -1.005067 2.027898 -0.042573
v 0.994933 2.027898 -0.043782
vt 0.000100 0.000100
vt 0.999900 0.000100
vt 0.999900 0.999900
vt 0.000100 0.999900
vn 0.000600 0.000000 1.000000
usemtl Branch
s off
f 9/9/3 10/10/3 12/11/3 11/12/3
o Plane
v 0.030628 0.027898 -1.006076
v 0.035246 0.027898 0.993918
v 0.030629 2.027898 -1.006076
v 0.035246 2.027898 0.993918
vt 0.000100 0.000100
vt 0.999900 0.000100
vt 0.999900 0.999900
vt 0.000100 0.999900
vn -1.000000 0.000000 0.002300
usemtl Branch
s off
f 13/13/4 14/14/4 16/15/4 15/16/4
